# xmcd CD database file
#
# Track frame offsets:
#	150
#	22959
#	43982
#	63290
#	84465
#	103797
#	125037
#	144054
#	164994
#
# Disc length: 2538 seconds
#
# Revision: 0
# Processed by: cddbd v1.5.1PL0 Copyright (c) Steve Scherf et al.
# Submitted via: CDex 1.51
#
DISCID=7b09e809
DTITLE=Melcochita - Tributo Al Jefe Daniel Santos
DYEAR=1998
DGENRE=Salsa
TTITLE0=Homenaje Al Jefe
TTITLE1=Nino Majadero
TTITLE2=Tibiri Tabara
TTITLE3=Boracho No Vale
TTITLE4=El Mambo Es Universal
TTITLE5=Bigote Gato
TTITLE6=El Corneta
TTITLE7=Yo La Mato
TTITLE8=Bolero Medley
EXTD=YEAR: 1998
EXTT0=
EXTT1=
EXTT2=
EXTT3=
EXTT4=
EXTT5=
EXTT6=
EXTT7=
EXTT8=
PLAYORDER=
